<mxfile host="app.diagrams.net" modified="2024-05-10T03:59:48.796Z" agent="Mozilla/5.0 (Windows NT 10.0; Win64; x64) AppleWebKit/537.36 (KHTML, like Gecko) Chrome/124.0.0.0 Safari/537.36" etag="J3YKB3hJmfBgXuUk9VIr" version="24.3.1" type="github">
  <diagram id="C5RBs43oDa-KdzZeNtuy" name="Page-1">
    <mxGraphModel dx="1114" dy="609" grid="1" gridSize="10" guides="1" tooltips="1" connect="1" arrows="1" fold="1" page="1" pageScale="1" pageWidth="827" pageHeight="1169" math="0" shadow="0">
      <root>
        <mxCell id="WIyWlLk6GJQsqaUBKTNV-0" />
        <mxCell id="WIyWlLk6GJQsqaUBKTNV-1" parent="WIyWlLk6GJQsqaUBKTNV-0" />
        <mxCell id="3BnE3WJO795XzovwtUXW-0" value="Complaint" style="swimlane;whiteSpace=wrap;html=1;labelBackgroundColor=default;" vertex="1" parent="WIyWlLk6GJQsqaUBKTNV-1">
          <mxGeometry x="314" y="40" width="200" height="200" as="geometry">
            <mxRectangle x="314" y="40" width="90" height="30" as="alternateBounds" />
          </mxGeometry>
        </mxCell>
        <mxCell id="3BnE3WJO795XzovwtUXW-3" value="cid: string&amp;nbsp;&lt;div style=&quot;font-size: 14px;&quot;&gt;name: string&amp;nbsp;&lt;/div&gt;&lt;div style=&quot;font-size: 14px;&quot;&gt;fatherName: String&amp;nbsp;&lt;br style=&quot;font-size: 14px;&quot;&gt;Address: String&lt;br style=&quot;font-size: 14px;&quot;&gt;Contact: number&lt;/div&gt;" style="text;html=1;align=left;verticalAlign=middle;resizable=0;points=[];autosize=1;strokeColor=none;fillColor=none;fontSize=14;" vertex="1" parent="3BnE3WJO795XzovwtUXW-0">
          <mxGeometry x="3" y="24" width="140" height="100" as="geometry" />
        </mxCell>
        <mxCell id="3BnE3WJO795XzovwtUXW-4" value="" style="endArrow=none;html=1;rounded=0;exitX=0;exitY=0.75;exitDx=0;exitDy=0;entryX=1;entryY=0.75;entryDx=0;entryDy=0;" edge="1" parent="WIyWlLk6GJQsqaUBKTNV-1" source="3BnE3WJO795XzovwtUXW-0" target="3BnE3WJO795XzovwtUXW-0">
          <mxGeometry width="50" height="50" relative="1" as="geometry">
            <mxPoint x="440" y="380" as="sourcePoint" />
            <mxPoint x="490" y="330" as="targetPoint" />
          </mxGeometry>
        </mxCell>
        <mxCell id="3BnE3WJO795XzovwtUXW-5" value="-registerFIR()" style="text;html=1;align=center;verticalAlign=middle;resizable=0;points=[];autosize=1;strokeColor=none;fillColor=none;fontSize=14;" vertex="1" parent="WIyWlLk6GJQsqaUBKTNV-1">
          <mxGeometry x="314" y="191" width="110" height="30" as="geometry" />
        </mxCell>
        <mxCell id="3BnE3WJO795XzovwtUXW-6" value="" style="endArrow=none;html=1;rounded=0;exitX=0.5;exitY=1;exitDx=0;exitDy=0;" edge="1" parent="WIyWlLk6GJQsqaUBKTNV-1" source="3BnE3WJO795XzovwtUXW-0" target="3BnE3WJO795XzovwtUXW-7">
          <mxGeometry width="50" height="50" relative="1" as="geometry">
            <mxPoint x="440" y="280" as="sourcePoint" />
            <mxPoint x="490" y="230" as="targetPoint" />
          </mxGeometry>
        </mxCell>
        <mxCell id="3BnE3WJO795XzovwtUXW-7" value="&lt;b&gt;FIR&lt;/b&gt;" style="swimlane;fontStyle=0;childLayout=stackLayout;horizontal=1;startSize=30;horizontalStack=0;resizeParent=1;resizeParentMax=0;resizeLast=0;collapsible=1;marginBottom=0;whiteSpace=wrap;html=1;" vertex="1" parent="WIyWlLk6GJQsqaUBKTNV-1">
          <mxGeometry x="314" y="320" width="200" height="180" as="geometry" />
        </mxCell>
        <mxCell id="3BnE3WJO795XzovwtUXW-11" value="fir_id=string&lt;div&gt;incidentDate: date&lt;br&gt;incidentTime: time&amp;nbsp;&lt;br&gt;incident: string&lt;br&gt;timeLodged: time&lt;/div&gt;&lt;div&gt;dateLodged: date&lt;/div&gt;" style="text;html=1;align=left;verticalAlign=middle;whiteSpace=wrap;rounded=0;" vertex="1" parent="3BnE3WJO795XzovwtUXW-7">
          <mxGeometry y="30" width="200" height="100" as="geometry" />
        </mxCell>
        <mxCell id="3BnE3WJO795XzovwtUXW-12" value="-insertDetails()&lt;div&gt;+viewDetails&lt;/div&gt;" style="text;html=1;align=left;verticalAlign=middle;whiteSpace=wrap;rounded=0;" vertex="1" parent="3BnE3WJO795XzovwtUXW-7">
          <mxGeometry y="130" width="200" height="50" as="geometry" />
        </mxCell>
        <mxCell id="3BnE3WJO795XzovwtUXW-19" value="" style="endArrow=none;html=1;rounded=0;exitX=0;exitY=0;exitDx=0;exitDy=0;entryX=1;entryY=0;entryDx=0;entryDy=0;" edge="1" parent="3BnE3WJO795XzovwtUXW-7" source="3BnE3WJO795XzovwtUXW-12" target="3BnE3WJO795XzovwtUXW-12">
          <mxGeometry width="50" height="50" relative="1" as="geometry">
            <mxPoint x="126" y="40" as="sourcePoint" />
            <mxPoint x="176" y="-10" as="targetPoint" />
          </mxGeometry>
        </mxCell>
        <mxCell id="3BnE3WJO795XzovwtUXW-13" value="&lt;b&gt;Assigned Case&lt;/b&gt;" style="swimlane;fontStyle=0;childLayout=stackLayout;horizontal=1;startSize=30;horizontalStack=0;resizeParent=1;resizeParentMax=0;resizeLast=0;collapsible=1;marginBottom=0;whiteSpace=wrap;html=1;align=center;" vertex="1" parent="WIyWlLk6GJQsqaUBKTNV-1">
          <mxGeometry x="40" y="320" width="160" height="180" as="geometry" />
        </mxCell>
        <mxCell id="3BnE3WJO795XzovwtUXW-17" value="case_id : string&lt;br&gt;caseDetails: string&lt;br&gt;caseStatus: string&lt;br&gt;caseJudgement: string&lt;br&gt;sectionOfLaw: string" style="text;html=1;align=left;verticalAlign=middle;whiteSpace=wrap;rounded=0;" vertex="1" parent="3BnE3WJO795XzovwtUXW-13">
          <mxGeometry y="30" width="160" height="90" as="geometry" />
        </mxCell>
        <mxCell id="3BnE3WJO795XzovwtUXW-18" value="-insertDetails()&lt;div&gt;-updateDetails()&lt;/div&gt;&lt;div&gt;+viewDetails()&lt;/div&gt;" style="text;html=1;align=left;verticalAlign=middle;whiteSpace=wrap;rounded=0;" vertex="1" parent="3BnE3WJO795XzovwtUXW-13">
          <mxGeometry y="120" width="160" height="60" as="geometry" />
        </mxCell>
        <mxCell id="3BnE3WJO795XzovwtUXW-20" value="" style="endArrow=none;html=1;rounded=0;exitX=0;exitY=0;exitDx=0;exitDy=0;entryX=1;entryY=0;entryDx=0;entryDy=0;" edge="1" parent="3BnE3WJO795XzovwtUXW-13" source="3BnE3WJO795XzovwtUXW-18" target="3BnE3WJO795XzovwtUXW-18">
          <mxGeometry width="50" height="50" relative="1" as="geometry">
            <mxPoint x="400" y="40" as="sourcePoint" />
            <mxPoint x="450" y="-10" as="targetPoint" />
          </mxGeometry>
        </mxCell>
        <mxCell id="3BnE3WJO795XzovwtUXW-21" value="" style="endArrow=classic;html=1;rounded=0;exitX=0;exitY=0.5;exitDx=0;exitDy=0;entryX=1.021;entryY=0.585;entryDx=0;entryDy=0;entryPerimeter=0;" edge="1" parent="WIyWlLk6GJQsqaUBKTNV-1" source="3BnE3WJO795XzovwtUXW-11" target="3BnE3WJO795XzovwtUXW-17">
          <mxGeometry width="50" height="50" relative="1" as="geometry">
            <mxPoint x="440" y="360" as="sourcePoint" />
            <mxPoint x="220" y="450" as="targetPoint" />
          </mxGeometry>
        </mxCell>
        <mxCell id="3BnE3WJO795XzovwtUXW-25" value="&lt;span style=&quot;font-weight: 700;&quot;&gt;Accused&lt;/span&gt;" style="swimlane;fontStyle=0;childLayout=stackLayout;horizontal=1;startSize=30;horizontalStack=0;resizeParent=1;resizeParentMax=0;resizeLast=0;collapsible=1;marginBottom=0;whiteSpace=wrap;html=1;" vertex="1" parent="WIyWlLk6GJQsqaUBKTNV-1">
          <mxGeometry x="641" y="324" width="160" height="160" as="geometry" />
        </mxCell>
        <mxCell id="3BnE3WJO795XzovwtUXW-29" value="accused_id: string&lt;br&gt;accusedName:string&lt;br&gt;accusedNumber:number&lt;br&gt;accusedStatus:string&lt;br&gt;address:string" style="text;html=1;align=left;verticalAlign=middle;whiteSpace=wrap;rounded=0;" vertex="1" parent="3BnE3WJO795XzovwtUXW-25">
          <mxGeometry y="30" width="160" height="90" as="geometry" />
        </mxCell>
        <mxCell id="3BnE3WJO795XzovwtUXW-30" value="+insertDetails()&lt;div&gt;+updateDetails()&lt;/div&gt;&lt;div&gt;+viewDetails()&lt;/div&gt;" style="text;html=1;align=left;verticalAlign=middle;whiteSpace=wrap;rounded=0;" vertex="1" parent="3BnE3WJO795XzovwtUXW-25">
          <mxGeometry y="120" width="160" height="40" as="geometry" />
        </mxCell>
        <mxCell id="3BnE3WJO795XzovwtUXW-31" value="" style="endArrow=none;html=1;rounded=0;exitX=0;exitY=0;exitDx=0;exitDy=0;entryX=1;entryY=0;entryDx=0;entryDy=0;" edge="1" parent="3BnE3WJO795XzovwtUXW-25" source="3BnE3WJO795XzovwtUXW-30" target="3BnE3WJO795XzovwtUXW-30">
          <mxGeometry width="50" height="50" relative="1" as="geometry">
            <mxPoint x="-200" y="40" as="sourcePoint" />
            <mxPoint x="-150" y="-10" as="targetPoint" />
          </mxGeometry>
        </mxCell>
        <mxCell id="3BnE3WJO795XzovwtUXW-32" value="" style="endArrow=none;html=1;rounded=0;exitX=1;exitY=0.5;exitDx=0;exitDy=0;entryX=0;entryY=0.5;entryDx=0;entryDy=0;" edge="1" parent="WIyWlLk6GJQsqaUBKTNV-1" source="3BnE3WJO795XzovwtUXW-11" target="3BnE3WJO795XzovwtUXW-29">
          <mxGeometry width="50" height="50" relative="1" as="geometry">
            <mxPoint x="440" y="360" as="sourcePoint" />
            <mxPoint x="490" y="310" as="targetPoint" />
          </mxGeometry>
        </mxCell>
        <mxCell id="3BnE3WJO795XzovwtUXW-33" value="&lt;b&gt;Investigating&lt;/b&gt;" style="swimlane;fontStyle=0;childLayout=stackLayout;horizontal=1;startSize=30;horizontalStack=0;resizeParent=1;resizeParentMax=0;resizeLast=0;collapsible=1;marginBottom=0;whiteSpace=wrap;html=1;" vertex="1" parent="WIyWlLk6GJQsqaUBKTNV-1">
          <mxGeometry x="40" y="560" width="160" height="220" as="geometry" />
        </mxCell>
        <mxCell id="3BnE3WJO795XzovwtUXW-39" value="&lt;b&gt;Officer&lt;/b&gt;" style="text;html=1;align=center;verticalAlign=middle;whiteSpace=wrap;rounded=0;" vertex="1" parent="3BnE3WJO795XzovwtUXW-33">
          <mxGeometry y="30" width="160" height="30" as="geometry" />
        </mxCell>
        <mxCell id="3BnE3WJO795XzovwtUXW-37" value="Officer_id: string&amp;nbsp;&lt;div&gt;&lt;br&gt;&lt;/div&gt;&lt;div&gt;name : string&lt;br&gt;&lt;br&gt;rank: string&lt;/div&gt;&lt;div&gt;&lt;br&gt;&lt;/div&gt;" style="text;html=1;align=left;verticalAlign=middle;whiteSpace=wrap;rounded=0;" vertex="1" parent="3BnE3WJO795XzovwtUXW-33">
          <mxGeometry y="60" width="160" height="90" as="geometry" />
        </mxCell>
        <mxCell id="3BnE3WJO795XzovwtUXW-38" value="+insertDetails()&lt;br&gt;&lt;br&gt;+viewDetails()" style="text;html=1;align=left;verticalAlign=middle;whiteSpace=wrap;rounded=0;" vertex="1" parent="3BnE3WJO795XzovwtUXW-33">
          <mxGeometry y="150" width="160" height="70" as="geometry" />
        </mxCell>
        <mxCell id="3BnE3WJO795XzovwtUXW-40" value="" style="endArrow=none;html=1;rounded=0;exitX=0;exitY=0;exitDx=0;exitDy=0;entryX=1;entryY=1;entryDx=0;entryDy=0;" edge="1" parent="3BnE3WJO795XzovwtUXW-33" source="3BnE3WJO795XzovwtUXW-38" target="3BnE3WJO795XzovwtUXW-37">
          <mxGeometry width="50" height="50" relative="1" as="geometry">
            <mxPoint x="410" y="-20" as="sourcePoint" />
            <mxPoint x="460" y="-70" as="targetPoint" />
          </mxGeometry>
        </mxCell>
        <mxCell id="3BnE3WJO795XzovwtUXW-41" value="" style="endArrow=none;html=1;rounded=0;exitX=0.5;exitY=0;exitDx=0;exitDy=0;entryX=0.5;entryY=1;entryDx=0;entryDy=0;" edge="1" parent="WIyWlLk6GJQsqaUBKTNV-1" source="3BnE3WJO795XzovwtUXW-33" target="3BnE3WJO795XzovwtUXW-18">
          <mxGeometry width="50" height="50" relative="1" as="geometry">
            <mxPoint x="450" y="540" as="sourcePoint" />
            <mxPoint x="500" y="490" as="targetPoint" />
          </mxGeometry>
        </mxCell>
        <mxCell id="3BnE3WJO795XzovwtUXW-43" value="&lt;b&gt;PoliceStation&lt;/b&gt;" style="swimlane;fontStyle=0;childLayout=stackLayout;horizontal=1;startSize=30;horizontalStack=0;resizeParent=1;resizeParentMax=0;resizeLast=0;collapsible=1;marginBottom=0;whiteSpace=wrap;html=1;" vertex="1" parent="WIyWlLk6GJQsqaUBKTNV-1">
          <mxGeometry x="320" y="560" width="200" height="120" as="geometry" />
        </mxCell>
        <mxCell id="3BnE3WJO795XzovwtUXW-47" value="pid: string&lt;div&gt;&lt;br&gt;stationInCharge: string&lt;/div&gt;&lt;div&gt;&lt;br&gt;&lt;div&gt;jurisdiction: string&amp;nbsp;&lt;/div&gt;&lt;/div&gt;" style="text;html=1;align=left;verticalAlign=middle;whiteSpace=wrap;rounded=0;" vertex="1" parent="3BnE3WJO795XzovwtUXW-43">
          <mxGeometry y="30" width="200" height="90" as="geometry" />
        </mxCell>
        <mxCell id="3BnE3WJO795XzovwtUXW-48" value="" style="endArrow=none;html=1;rounded=0;exitX=1;exitY=0.25;exitDx=0;exitDy=0;entryX=-0.008;entryY=0.578;entryDx=0;entryDy=0;entryPerimeter=0;" edge="1" parent="WIyWlLk6GJQsqaUBKTNV-1" source="3BnE3WJO795XzovwtUXW-37" target="3BnE3WJO795XzovwtUXW-47">
          <mxGeometry width="50" height="50" relative="1" as="geometry">
            <mxPoint x="460" y="620" as="sourcePoint" />
            <mxPoint x="510" y="570" as="targetPoint" />
          </mxGeometry>
        </mxCell>
        <mxCell id="3BnE3WJO795XzovwtUXW-49" value="&lt;b&gt;Adminstrator&lt;/b&gt;" style="swimlane;fontStyle=0;childLayout=stackLayout;horizontal=1;startSize=30;horizontalStack=0;resizeParent=1;resizeParentMax=0;resizeLast=0;collapsible=1;marginBottom=0;whiteSpace=wrap;html=1;" vertex="1" parent="WIyWlLk6GJQsqaUBKTNV-1">
          <mxGeometry x="641" y="565" width="140" height="170" as="geometry" />
        </mxCell>
        <mxCell id="3BnE3WJO795XzovwtUXW-53" value="adminName: string&lt;br&gt;sub-adminName: string&lt;div&gt;user: string&lt;br&gt;&lt;div&gt;&lt;br&gt;&lt;/div&gt;&lt;/div&gt;" style="text;html=1;align=left;verticalAlign=middle;whiteSpace=wrap;rounded=0;" vertex="1" parent="3BnE3WJO795XzovwtUXW-49">
          <mxGeometry y="30" width="140" height="80" as="geometry" />
        </mxCell>
        <mxCell id="3BnE3WJO795XzovwtUXW-54" value="-registerPoliceStation()&lt;br&gt;-viewCrminalRecords()" style="text;html=1;align=center;verticalAlign=middle;whiteSpace=wrap;rounded=0;" vertex="1" parent="3BnE3WJO795XzovwtUXW-49">
          <mxGeometry y="110" width="140" height="60" as="geometry" />
        </mxCell>
        <mxCell id="3BnE3WJO795XzovwtUXW-55" value="" style="endArrow=none;html=1;rounded=0;exitX=0;exitY=0;exitDx=0;exitDy=0;entryX=1;entryY=1;entryDx=0;entryDy=0;" edge="1" parent="3BnE3WJO795XzovwtUXW-49" source="3BnE3WJO795XzovwtUXW-54" target="3BnE3WJO795XzovwtUXW-53">
          <mxGeometry width="50" height="50" relative="1" as="geometry">
            <mxPoint x="-181" y="60" as="sourcePoint" />
            <mxPoint x="-131" y="10" as="targetPoint" />
          </mxGeometry>
        </mxCell>
        <mxCell id="3BnE3WJO795XzovwtUXW-56" value="" style="endArrow=none;html=1;rounded=0;exitX=1;exitY=0.5;exitDx=0;exitDy=0;entryX=0;entryY=0.5;entryDx=0;entryDy=0;" edge="1" parent="WIyWlLk6GJQsqaUBKTNV-1" source="3BnE3WJO795XzovwtUXW-47" target="3BnE3WJO795XzovwtUXW-53">
          <mxGeometry width="50" height="50" relative="1" as="geometry">
            <mxPoint x="460" y="620" as="sourcePoint" />
            <mxPoint x="510" y="570" as="targetPoint" />
          </mxGeometry>
        </mxCell>
      </root>
    </mxGraphModel>
  </diagram>
</mxfile>
